<svg id="_0004_new_message" xmlns="http://www.w3.org/2000/svg" viewBox="0 0 500 500" data-imageid="message-received-81" imageName="Message Received" class="illustrations_image" style="width: 215px;"><defs><style>.cls-1_message-received-81{fill:#fff;}.cls-2_message-received-81{opacity:.02;}.cls-2_message-received-81,.cls-3_message-received-81{fill:#000001;}.cls-4_message-received-81{fill:#24285b;}.cls-3_message-received-81{opacity:.08;}.cls-5_message-received-81{fill:#ffd200;}.cls-6_message-received-81{fill:#68e1fd;}</style></defs><ellipse id="sd_message-received-81" class="cls-2_message-received-81" cx="250" cy="431.85" rx="230.48" ry="38.26"/><g id="phone_message-received-81"><rect class="cls-6_message-received-81 targetColor" x="123.1" y="29.89" width="252.7" height="410.17" rx="16.06" ry="16.06" style="fill: rgb(104, 225, 253);"/><rect class="cls-1_message-received-81" x="142.28" y="61.02" width="214.35" height="315.37" rx="9.09" ry="9.09"/><polygon class="cls-5_message-received-81" points="181.15 203.83 247.91 145.24 318.89 203.83 181.15 203.83"/><polygon class="cls-3_message-received-81" points="181.15 203.83 247.91 145.24 318.89 203.83 181.15 203.83"/><ellipse class="cls-2_message-received-81" cx="251.28" cy="301.49" rx="91.51" ry="15.15"/><circle class="cls-4_message-received-81" cx="247.91" cy="408.15" r="18.55"/><rect class="cls-5_message-received-81" x="181.15" y="203.83" width="137.74" height="94.56"/><polygon class="cls-5_message-received-81" points="181.15 203.83 247.99 271.17 318.89 203.83 181.15 203.83"/><polygon class="cls-3_message-received-81" points="181.15 203.83 247.99 271.17 318.89 203.83 181.15 203.83"/><polygon class="cls-4_message-received-81" points="193.54 216.31 193.54 174.28 307.46 174.28 307.46 214.68 247.99 271.17 193.54 216.31"/><rect class="cls-1_message-received-81" x="195.17" y="274.7" width="20.21" height="11.64"/><rect class="cls-6_message-received-81 targetColor" x="200.33" y="41.16" width="99.37" height="29.48" rx="9.88" ry="9.88" style="fill: rgb(104, 225, 253);"/><rect class="cls-1_message-received-81" x="236.18" y="49.57" width="50.95" height="6.13" rx="2.22" ry="2.22"/><circle class="cls-1_message-received-81" cx="219.44" cy="51.77" r="7.47"/><rect class="cls-1_message-received-81" x="220.33" y="192.36" width="58.26" height="1.85"/><rect class="cls-1_message-received-81" x="220.33" y="204.86" width="58.26" height="1.85"/></g><g id="notif_message-received-81"><circle class="cls-4_message-received-81" cx="367.54" cy="127.17" r="51.89"/><polygon class="cls-4_message-received-81" points="338.94 153.9 325.26 179.06 352.15 164.75 338.94 153.9"/><path class="cls-1_message-received-81" d="m355.78,148.09c-1.41,0-2.48-.38-3.23-1.16-.75-.77-1.12-1.83-1.12-3.2s.38-2.47,1.12-3.2c.75-.72,1.83-1.09,3.23-1.09h6.93v-30.66h4.96l-9.93,6.05c-1.04.59-2,.83-2.89.71-.89-.11-1.64-.48-2.28-1.12-.63-.63-1.05-1.39-1.26-2.28-.2-.89-.13-1.77.24-2.65.37-.88,1.04-1.64,2.04-2.28l9.45-5.71c.95-.59,1.91-1.05,2.89-1.39s1.94-.51,2.89-.51c1.36,0,2.43.34,3.23,1.02.79.68,1.19,1.72,1.19,3.13v35.69h6.19c1.41,0,2.5.36,3.26,1.09s1.16,1.79,1.16,3.2-.39,2.48-1.16,3.23c-.77.75-1.86,1.12-3.26,1.12h-23.66Z"/></g></svg>